<mxfile host="Electron" modified="2023-12-10T03:40:45.222Z" agent="Mozilla/5.0 (Windows NT 10.0; Win64; x64) AppleWebKit/537.36 (KHTML, like Gecko) draw.io/22.1.2 Chrome/114.0.5735.289 Electron/25.9.4 Safari/537.36" etag="yrGLZA1BXVFOvwmaGFae" version="22.1.2" type="device">
  <diagram id="R2lEEEUBdFMjLlhIrx00" name="Page-1">
    <mxGraphModel dx="2284" dy="836" grid="1" gridSize="10" guides="1" tooltips="1" connect="1" arrows="1" fold="1" page="1" pageScale="1" pageWidth="850" pageHeight="1100" math="0" shadow="0" extFonts="Permanent Marker^https://fonts.googleapis.com/css?family=Permanent+Marker">
      <root>
        <mxCell id="0" />
        <mxCell id="1" parent="0" />
        <mxCell id="zjI-ns-9y0Er0vaiKgGQ-5" style="rounded=0;orthogonalLoop=1;jettySize=auto;html=1;exitX=0.5;exitY=0;exitDx=0;exitDy=0;entryX=0.5;entryY=1;entryDx=0;entryDy=0;" edge="1" parent="1" source="zjI-ns-9y0Er0vaiKgGQ-1" target="zjI-ns-9y0Er0vaiKgGQ-3">
          <mxGeometry relative="1" as="geometry" />
        </mxCell>
        <mxCell id="zjI-ns-9y0Er0vaiKgGQ-13" style="rounded=0;orthogonalLoop=1;jettySize=auto;html=1;exitX=0.25;exitY=0;exitDx=0;exitDy=0;entryX=1;entryY=1;entryDx=0;entryDy=0;" edge="1" parent="1" source="zjI-ns-9y0Er0vaiKgGQ-1" target="zjI-ns-9y0Er0vaiKgGQ-6">
          <mxGeometry relative="1" as="geometry" />
        </mxCell>
        <mxCell id="zjI-ns-9y0Er0vaiKgGQ-14" style="rounded=0;orthogonalLoop=1;jettySize=auto;html=1;exitX=0;exitY=0;exitDx=0;exitDy=0;entryX=1;entryY=1;entryDx=0;entryDy=0;" edge="1" parent="1" source="zjI-ns-9y0Er0vaiKgGQ-1" target="zjI-ns-9y0Er0vaiKgGQ-12">
          <mxGeometry relative="1" as="geometry" />
        </mxCell>
        <mxCell id="zjI-ns-9y0Er0vaiKgGQ-15" style="rounded=0;orthogonalLoop=1;jettySize=auto;html=1;exitX=0;exitY=0.25;exitDx=0;exitDy=0;entryX=1;entryY=0.5;entryDx=0;entryDy=0;" edge="1" parent="1" source="zjI-ns-9y0Er0vaiKgGQ-1" target="zjI-ns-9y0Er0vaiKgGQ-7">
          <mxGeometry relative="1" as="geometry" />
        </mxCell>
        <mxCell id="zjI-ns-9y0Er0vaiKgGQ-16" style="rounded=0;orthogonalLoop=1;jettySize=auto;html=1;exitX=0;exitY=0.75;exitDx=0;exitDy=0;entryX=1;entryY=0.5;entryDx=0;entryDy=0;" edge="1" parent="1" source="zjI-ns-9y0Er0vaiKgGQ-1" target="zjI-ns-9y0Er0vaiKgGQ-9">
          <mxGeometry relative="1" as="geometry" />
        </mxCell>
        <mxCell id="zjI-ns-9y0Er0vaiKgGQ-17" style="rounded=0;orthogonalLoop=1;jettySize=auto;html=1;exitX=0;exitY=1;exitDx=0;exitDy=0;entryX=1;entryY=0;entryDx=0;entryDy=0;" edge="1" parent="1" source="zjI-ns-9y0Er0vaiKgGQ-1" target="zjI-ns-9y0Er0vaiKgGQ-8">
          <mxGeometry relative="1" as="geometry" />
        </mxCell>
        <mxCell id="zjI-ns-9y0Er0vaiKgGQ-1" value="package" style="whiteSpace=wrap;html=1;align=center;" vertex="1" parent="1">
          <mxGeometry x="40" y="230" width="100" height="40" as="geometry" />
        </mxCell>
        <mxCell id="zjI-ns-9y0Er0vaiKgGQ-3" value="id" style="ellipse;whiteSpace=wrap;html=1;align=center;fontStyle=4;" vertex="1" parent="1">
          <mxGeometry x="40" y="120" width="100" height="40" as="geometry" />
        </mxCell>
        <mxCell id="zjI-ns-9y0Er0vaiKgGQ-6" value="dest" style="ellipse;whiteSpace=wrap;html=1;align=center;" vertex="1" parent="1">
          <mxGeometry x="-100" y="120" width="100" height="40" as="geometry" />
        </mxCell>
        <mxCell id="zjI-ns-9y0Er0vaiKgGQ-7" value="stat" style="ellipse;whiteSpace=wrap;html=1;align=center;" vertex="1" parent="1">
          <mxGeometry x="-200" y="190" width="100" height="40" as="geometry" />
        </mxCell>
        <mxCell id="zjI-ns-9y0Er0vaiKgGQ-8" value="declared_value" style="ellipse;whiteSpace=wrap;html=1;align=center;" vertex="1" parent="1">
          <mxGeometry x="-100" y="340" width="100" height="40" as="geometry" />
        </mxCell>
        <mxCell id="zjI-ns-9y0Er0vaiKgGQ-9" value="category" style="ellipse;whiteSpace=wrap;html=1;align=center;" vertex="1" parent="1">
          <mxGeometry x="-200" y="270" width="100" height="40" as="geometry" />
        </mxCell>
        <mxCell id="zjI-ns-9y0Er0vaiKgGQ-12" value="wght" style="ellipse;whiteSpace=wrap;html=1;align=center;" vertex="1" parent="1">
          <mxGeometry x="-240" y="100" width="100" height="40" as="geometry" />
        </mxCell>
        <mxCell id="zjI-ns-9y0Er0vaiKgGQ-26" style="edgeStyle=orthogonalEdgeStyle;rounded=0;orthogonalLoop=1;jettySize=auto;html=1;exitX=1;exitY=0.5;exitDx=0;exitDy=0;entryX=0;entryY=0.5;entryDx=0;entryDy=0;" edge="1" parent="1" source="zjI-ns-9y0Er0vaiKgGQ-20" target="zjI-ns-9y0Er0vaiKgGQ-22">
          <mxGeometry relative="1" as="geometry" />
        </mxCell>
        <mxCell id="zjI-ns-9y0Er0vaiKgGQ-20" value="package_id" style="shape=rhombus;perimeter=rhombusPerimeter;whiteSpace=wrap;html=1;align=center;" vertex="1" parent="1">
          <mxGeometry x="200" y="220" width="120" height="60" as="geometry" />
        </mxCell>
        <mxCell id="zjI-ns-9y0Er0vaiKgGQ-21" value="" style="edgeStyle=entityRelationEdgeStyle;fontSize=12;html=1;endArrow=ERzeroToOne;endFill=1;rounded=0;exitX=0;exitY=0.5;exitDx=0;exitDy=0;entryX=1;entryY=0.5;entryDx=0;entryDy=0;" edge="1" parent="1" source="zjI-ns-9y0Er0vaiKgGQ-20" target="zjI-ns-9y0Er0vaiKgGQ-1">
          <mxGeometry width="100" height="100" relative="1" as="geometry">
            <mxPoint x="370" y="470" as="sourcePoint" />
            <mxPoint x="470" y="370" as="targetPoint" />
          </mxGeometry>
        </mxCell>
        <mxCell id="zjI-ns-9y0Er0vaiKgGQ-35" style="edgeStyle=orthogonalEdgeStyle;rounded=0;orthogonalLoop=1;jettySize=auto;html=1;exitX=0.5;exitY=0;exitDx=0;exitDy=0;entryX=0.5;entryY=1;entryDx=0;entryDy=0;" edge="1" parent="1" source="zjI-ns-9y0Er0vaiKgGQ-22" target="zjI-ns-9y0Er0vaiKgGQ-32">
          <mxGeometry relative="1" as="geometry" />
        </mxCell>
        <mxCell id="zjI-ns-9y0Er0vaiKgGQ-43" style="rounded=0;orthogonalLoop=1;jettySize=auto;html=1;exitX=1;exitY=1;exitDx=0;exitDy=0;entryX=0;entryY=0;entryDx=0;entryDy=0;" edge="1" parent="1" source="zjI-ns-9y0Er0vaiKgGQ-22" target="zjI-ns-9y0Er0vaiKgGQ-42">
          <mxGeometry relative="1" as="geometry" />
        </mxCell>
        <mxCell id="zjI-ns-9y0Er0vaiKgGQ-44" style="rounded=0;orthogonalLoop=1;jettySize=auto;html=1;exitX=1;exitY=0.75;exitDx=0;exitDy=0;entryX=0;entryY=0.5;entryDx=0;entryDy=0;" edge="1" parent="1" source="zjI-ns-9y0Er0vaiKgGQ-22" target="zjI-ns-9y0Er0vaiKgGQ-41">
          <mxGeometry relative="1" as="geometry" />
        </mxCell>
        <mxCell id="zjI-ns-9y0Er0vaiKgGQ-45" style="rounded=0;orthogonalLoop=1;jettySize=auto;html=1;exitX=1;exitY=0.25;exitDx=0;exitDy=0;entryX=0;entryY=0.5;entryDx=0;entryDy=0;" edge="1" parent="1" source="zjI-ns-9y0Er0vaiKgGQ-22" target="zjI-ns-9y0Er0vaiKgGQ-39">
          <mxGeometry relative="1" as="geometry" />
        </mxCell>
        <mxCell id="zjI-ns-9y0Er0vaiKgGQ-46" style="rounded=0;orthogonalLoop=1;jettySize=auto;html=1;exitX=0.75;exitY=0;exitDx=0;exitDy=0;entryX=0;entryY=1;entryDx=0;entryDy=0;" edge="1" parent="1" source="zjI-ns-9y0Er0vaiKgGQ-22" target="zjI-ns-9y0Er0vaiKgGQ-40">
          <mxGeometry relative="1" as="geometry" />
        </mxCell>
        <mxCell id="zjI-ns-9y0Er0vaiKgGQ-22" value="fleet" style="whiteSpace=wrap;html=1;align=center;" vertex="1" parent="1">
          <mxGeometry x="380" y="230" width="100" height="40" as="geometry" />
        </mxCell>
        <mxCell id="zjI-ns-9y0Er0vaiKgGQ-37" style="edgeStyle=orthogonalEdgeStyle;rounded=0;orthogonalLoop=1;jettySize=auto;html=1;exitX=0.5;exitY=1;exitDx=0;exitDy=0;entryX=0.5;entryY=0;entryDx=0;entryDy=0;" edge="1" parent="1" source="zjI-ns-9y0Er0vaiKgGQ-23" target="zjI-ns-9y0Er0vaiKgGQ-36">
          <mxGeometry relative="1" as="geometry" />
        </mxCell>
        <mxCell id="zjI-ns-9y0Er0vaiKgGQ-51" style="rounded=0;orthogonalLoop=1;jettySize=auto;html=1;exitX=1;exitY=0;exitDx=0;exitDy=0;entryX=0;entryY=1;entryDx=0;entryDy=0;" edge="1" parent="1" source="zjI-ns-9y0Er0vaiKgGQ-23" target="zjI-ns-9y0Er0vaiKgGQ-48">
          <mxGeometry relative="1" as="geometry" />
        </mxCell>
        <mxCell id="zjI-ns-9y0Er0vaiKgGQ-52" style="rounded=0;orthogonalLoop=1;jettySize=auto;html=1;exitX=1;exitY=0.25;exitDx=0;exitDy=0;entryX=0;entryY=0.5;entryDx=0;entryDy=0;" edge="1" parent="1" source="zjI-ns-9y0Er0vaiKgGQ-23" target="zjI-ns-9y0Er0vaiKgGQ-47">
          <mxGeometry relative="1" as="geometry" />
        </mxCell>
        <mxCell id="zjI-ns-9y0Er0vaiKgGQ-53" style="rounded=0;orthogonalLoop=1;jettySize=auto;html=1;exitX=1;exitY=0.75;exitDx=0;exitDy=0;entryX=0;entryY=0.5;entryDx=0;entryDy=0;" edge="1" parent="1" source="zjI-ns-9y0Er0vaiKgGQ-23" target="zjI-ns-9y0Er0vaiKgGQ-49">
          <mxGeometry relative="1" as="geometry" />
        </mxCell>
        <mxCell id="zjI-ns-9y0Er0vaiKgGQ-54" style="rounded=0;orthogonalLoop=1;jettySize=auto;html=1;exitX=0.75;exitY=1;exitDx=0;exitDy=0;entryX=0;entryY=0;entryDx=0;entryDy=0;" edge="1" parent="1" source="zjI-ns-9y0Er0vaiKgGQ-23" target="zjI-ns-9y0Er0vaiKgGQ-50">
          <mxGeometry relative="1" as="geometry" />
        </mxCell>
        <mxCell id="zjI-ns-9y0Er0vaiKgGQ-23" value="depot" style="whiteSpace=wrap;html=1;align=center;" vertex="1" parent="1">
          <mxGeometry x="380" y="480" width="100" height="40" as="geometry" />
        </mxCell>
        <mxCell id="zjI-ns-9y0Er0vaiKgGQ-28" style="rounded=0;orthogonalLoop=1;jettySize=auto;html=1;exitX=1;exitY=1;exitDx=0;exitDy=0;entryX=0;entryY=0.25;entryDx=0;entryDy=0;" edge="1" parent="1" source="zjI-ns-9y0Er0vaiKgGQ-24" target="zjI-ns-9y0Er0vaiKgGQ-23">
          <mxGeometry relative="1" as="geometry" />
        </mxCell>
        <mxCell id="zjI-ns-9y0Er0vaiKgGQ-24" value="depot_id" style="shape=rhombus;perimeter=rhombusPerimeter;whiteSpace=wrap;html=1;align=center;" vertex="1" parent="1">
          <mxGeometry x="140" y="300" width="120" height="60" as="geometry" />
        </mxCell>
        <mxCell id="zjI-ns-9y0Er0vaiKgGQ-29" style="edgeStyle=orthogonalEdgeStyle;rounded=0;orthogonalLoop=1;jettySize=auto;html=1;exitX=0.5;exitY=1;exitDx=0;exitDy=0;entryX=0.5;entryY=0;entryDx=0;entryDy=0;" edge="1" parent="1" source="zjI-ns-9y0Er0vaiKgGQ-25" target="zjI-ns-9y0Er0vaiKgGQ-23">
          <mxGeometry relative="1" as="geometry" />
        </mxCell>
        <mxCell id="zjI-ns-9y0Er0vaiKgGQ-25" value="destination" style="shape=rhombus;perimeter=rhombusPerimeter;whiteSpace=wrap;html=1;align=center;" vertex="1" parent="1">
          <mxGeometry x="370" y="350" width="120" height="60" as="geometry" />
        </mxCell>
        <mxCell id="zjI-ns-9y0Er0vaiKgGQ-27" value="" style="fontSize=12;html=1;endArrow=ERzeroToOne;endFill=1;rounded=0;entryX=1;entryY=1;entryDx=0;entryDy=0;exitX=0;exitY=0;exitDx=0;exitDy=0;" edge="1" parent="1" source="zjI-ns-9y0Er0vaiKgGQ-24" target="zjI-ns-9y0Er0vaiKgGQ-1">
          <mxGeometry width="100" height="100" relative="1" as="geometry">
            <mxPoint x="370" y="470" as="sourcePoint" />
            <mxPoint x="470" y="370" as="targetPoint" />
          </mxGeometry>
        </mxCell>
        <mxCell id="zjI-ns-9y0Er0vaiKgGQ-30" value="" style="fontSize=12;html=1;endArrow=ERone;endFill=1;rounded=0;entryX=0.5;entryY=1;entryDx=0;entryDy=0;exitX=0.5;exitY=0;exitDx=0;exitDy=0;" edge="1" parent="1" source="zjI-ns-9y0Er0vaiKgGQ-25" target="zjI-ns-9y0Er0vaiKgGQ-22">
          <mxGeometry width="100" height="100" relative="1" as="geometry">
            <mxPoint x="370" y="470" as="sourcePoint" />
            <mxPoint x="470" y="370" as="targetPoint" />
          </mxGeometry>
        </mxCell>
        <mxCell id="zjI-ns-9y0Er0vaiKgGQ-32" value="id" style="ellipse;whiteSpace=wrap;html=1;align=center;fontStyle=4;" vertex="1" parent="1">
          <mxGeometry x="380" y="120" width="100" height="40" as="geometry" />
        </mxCell>
        <mxCell id="zjI-ns-9y0Er0vaiKgGQ-36" value="id" style="ellipse;whiteSpace=wrap;html=1;align=center;fontStyle=4;" vertex="1" parent="1">
          <mxGeometry x="380" y="590" width="100" height="40" as="geometry" />
        </mxCell>
        <mxCell id="zjI-ns-9y0Er0vaiKgGQ-39" value="vehicle_type" style="ellipse;whiteSpace=wrap;html=1;align=center;" vertex="1" parent="1">
          <mxGeometry x="630" y="190" width="100" height="40" as="geometry" />
        </mxCell>
        <mxCell id="zjI-ns-9y0Er0vaiKgGQ-40" value="vehicle_type" style="ellipse;whiteSpace=wrap;html=1;align=center;" vertex="1" parent="1">
          <mxGeometry x="530" y="120" width="100" height="40" as="geometry" />
        </mxCell>
        <mxCell id="zjI-ns-9y0Er0vaiKgGQ-41" value="rng" style="ellipse;whiteSpace=wrap;html=1;align=center;" vertex="1" parent="1">
          <mxGeometry x="630" y="270" width="100" height="40" as="geometry" />
        </mxCell>
        <mxCell id="zjI-ns-9y0Er0vaiKgGQ-42" value="stat" style="ellipse;whiteSpace=wrap;html=1;align=center;" vertex="1" parent="1">
          <mxGeometry x="530" y="340" width="100" height="40" as="geometry" />
        </mxCell>
        <mxCell id="zjI-ns-9y0Er0vaiKgGQ-47" value="vehicle_type" style="ellipse;whiteSpace=wrap;html=1;align=center;" vertex="1" parent="1">
          <mxGeometry x="610" y="470" width="100" height="40" as="geometry" />
        </mxCell>
        <mxCell id="zjI-ns-9y0Er0vaiKgGQ-48" value="vehicle_type" style="ellipse;whiteSpace=wrap;html=1;align=center;" vertex="1" parent="1">
          <mxGeometry x="510" y="400" width="100" height="40" as="geometry" />
        </mxCell>
        <mxCell id="zjI-ns-9y0Er0vaiKgGQ-49" value="rng" style="ellipse;whiteSpace=wrap;html=1;align=center;" vertex="1" parent="1">
          <mxGeometry x="610" y="550" width="100" height="40" as="geometry" />
        </mxCell>
        <mxCell id="zjI-ns-9y0Er0vaiKgGQ-50" value="stat" style="ellipse;whiteSpace=wrap;html=1;align=center;" vertex="1" parent="1">
          <mxGeometry x="510" y="620" width="100" height="40" as="geometry" />
        </mxCell>
        <mxCell id="zjI-ns-9y0Er0vaiKgGQ-63" style="edgeStyle=orthogonalEdgeStyle;rounded=0;orthogonalLoop=1;jettySize=auto;html=1;exitX=0.5;exitY=1;exitDx=0;exitDy=0;entryX=0.5;entryY=0;entryDx=0;entryDy=0;" edge="1" parent="1" source="zjI-ns-9y0Er0vaiKgGQ-57" target="zjI-ns-9y0Er0vaiKgGQ-62">
          <mxGeometry relative="1" as="geometry" />
        </mxCell>
        <mxCell id="zjI-ns-9y0Er0vaiKgGQ-57" value="distances" style="shape=rhombus;perimeter=rhombusPerimeter;whiteSpace=wrap;html=1;align=center;" vertex="1" parent="1">
          <mxGeometry x="250" y="660" width="120" height="60" as="geometry" />
        </mxCell>
        <mxCell id="zjI-ns-9y0Er0vaiKgGQ-61" value="" style="fontSize=12;html=1;endArrow=ERmany;startArrow=ERmany;rounded=0;entryX=0.25;entryY=1;entryDx=0;entryDy=0;exitX=1;exitY=0;exitDx=0;exitDy=0;" edge="1" parent="1" source="zjI-ns-9y0Er0vaiKgGQ-57" target="zjI-ns-9y0Er0vaiKgGQ-23">
          <mxGeometry width="100" height="100" relative="1" as="geometry">
            <mxPoint x="341" y="683" as="sourcePoint" />
            <mxPoint x="470" y="570" as="targetPoint" />
          </mxGeometry>
        </mxCell>
        <mxCell id="zjI-ns-9y0Er0vaiKgGQ-62" value="distance" style="ellipse;whiteSpace=wrap;html=1;align=center;" vertex="1" parent="1">
          <mxGeometry x="260" y="760" width="100" height="40" as="geometry" />
        </mxCell>
        <mxCell id="zjI-ns-9y0Er0vaiKgGQ-77" style="rounded=0;orthogonalLoop=1;jettySize=auto;html=1;exitX=0.25;exitY=1;exitDx=0;exitDy=0;entryX=0.5;entryY=0;entryDx=0;entryDy=0;" edge="1" parent="1" source="zjI-ns-9y0Er0vaiKgGQ-64" target="zjI-ns-9y0Er0vaiKgGQ-75">
          <mxGeometry relative="1" as="geometry" />
        </mxCell>
        <mxCell id="zjI-ns-9y0Er0vaiKgGQ-78" style="rounded=0;orthogonalLoop=1;jettySize=auto;html=1;exitX=0.75;exitY=1;exitDx=0;exitDy=0;entryX=0.5;entryY=0;entryDx=0;entryDy=0;" edge="1" parent="1" source="zjI-ns-9y0Er0vaiKgGQ-64" target="zjI-ns-9y0Er0vaiKgGQ-74">
          <mxGeometry relative="1" as="geometry" />
        </mxCell>
        <mxCell id="zjI-ns-9y0Er0vaiKgGQ-83" style="rounded=0;orthogonalLoop=1;jettySize=auto;html=1;exitX=0.5;exitY=1;exitDx=0;exitDy=0;entryX=0.5;entryY=0;entryDx=0;entryDy=0;" edge="1" parent="1" source="zjI-ns-9y0Er0vaiKgGQ-64" target="zjI-ns-9y0Er0vaiKgGQ-79">
          <mxGeometry relative="1" as="geometry" />
        </mxCell>
        <mxCell id="zjI-ns-9y0Er0vaiKgGQ-64" value="timetable" style="whiteSpace=wrap;html=1;align=center;" vertex="1" parent="1">
          <mxGeometry x="40" y="480" width="100" height="40" as="geometry" />
        </mxCell>
        <mxCell id="zjI-ns-9y0Er0vaiKgGQ-66" style="rounded=0;orthogonalLoop=1;jettySize=auto;html=1;exitX=1;exitY=0;exitDx=0;exitDy=0;entryX=0;entryY=1;entryDx=0;entryDy=0;" edge="1" parent="1" source="zjI-ns-9y0Er0vaiKgGQ-65" target="zjI-ns-9y0Er0vaiKgGQ-22">
          <mxGeometry relative="1" as="geometry" />
        </mxCell>
        <mxCell id="zjI-ns-9y0Er0vaiKgGQ-65" value="fleet_id" style="shape=rhombus;perimeter=rhombusPerimeter;whiteSpace=wrap;html=1;align=center;" vertex="1" parent="1">
          <mxGeometry x="160" y="390" width="120" height="60" as="geometry" />
        </mxCell>
        <mxCell id="zjI-ns-9y0Er0vaiKgGQ-67" value="" style="fontSize=12;html=1;endArrow=ERzeroToOne;endFill=1;rounded=0;exitX=0;exitY=1;exitDx=0;exitDy=0;entryX=1;entryY=0;entryDx=0;entryDy=0;" edge="1" parent="1" source="zjI-ns-9y0Er0vaiKgGQ-65" target="zjI-ns-9y0Er0vaiKgGQ-64">
          <mxGeometry width="100" height="100" relative="1" as="geometry">
            <mxPoint x="380" y="480" as="sourcePoint" />
            <mxPoint x="480" y="380" as="targetPoint" />
          </mxGeometry>
        </mxCell>
        <mxCell id="zjI-ns-9y0Er0vaiKgGQ-71" style="rounded=0;orthogonalLoop=1;jettySize=auto;html=1;exitX=1;exitY=1;exitDx=0;exitDy=0;entryX=0;entryY=0.5;entryDx=0;entryDy=0;" edge="1" parent="1" source="zjI-ns-9y0Er0vaiKgGQ-68" target="zjI-ns-9y0Er0vaiKgGQ-23">
          <mxGeometry relative="1" as="geometry" />
        </mxCell>
        <mxCell id="zjI-ns-9y0Er0vaiKgGQ-68" value="source" style="shape=rhombus;perimeter=rhombusPerimeter;whiteSpace=wrap;html=1;align=center;" vertex="1" parent="1">
          <mxGeometry x="200" y="450" width="120" height="60" as="geometry" />
        </mxCell>
        <mxCell id="zjI-ns-9y0Er0vaiKgGQ-70" style="rounded=0;orthogonalLoop=1;jettySize=auto;html=1;exitX=1;exitY=0;exitDx=0;exitDy=0;entryX=0;entryY=0.75;entryDx=0;entryDy=0;" edge="1" parent="1" source="zjI-ns-9y0Er0vaiKgGQ-69" target="zjI-ns-9y0Er0vaiKgGQ-23">
          <mxGeometry relative="1" as="geometry" />
        </mxCell>
        <mxCell id="zjI-ns-9y0Er0vaiKgGQ-69" value="dest" style="shape=rhombus;perimeter=rhombusPerimeter;whiteSpace=wrap;html=1;align=center;" vertex="1" parent="1">
          <mxGeometry x="200" y="530" width="120" height="60" as="geometry" />
        </mxCell>
        <mxCell id="zjI-ns-9y0Er0vaiKgGQ-72" value="" style="fontSize=12;html=1;endArrow=ERzeroToOne;endFill=1;rounded=0;exitX=0;exitY=1;exitDx=0;exitDy=0;entryX=1;entryY=0.25;entryDx=0;entryDy=0;" edge="1" parent="1" source="zjI-ns-9y0Er0vaiKgGQ-68" target="zjI-ns-9y0Er0vaiKgGQ-64">
          <mxGeometry width="100" height="100" relative="1" as="geometry">
            <mxPoint x="380" y="480" as="sourcePoint" />
            <mxPoint x="480" y="380" as="targetPoint" />
          </mxGeometry>
        </mxCell>
        <mxCell id="zjI-ns-9y0Er0vaiKgGQ-73" value="" style="fontSize=12;html=1;endArrow=ERzeroToOne;endFill=1;rounded=0;exitX=0;exitY=0;exitDx=0;exitDy=0;entryX=1;entryY=0.75;entryDx=0;entryDy=0;" edge="1" parent="1" source="zjI-ns-9y0Er0vaiKgGQ-69" target="zjI-ns-9y0Er0vaiKgGQ-64">
          <mxGeometry width="100" height="100" relative="1" as="geometry">
            <mxPoint x="240" y="505" as="sourcePoint" />
            <mxPoint x="150" y="500" as="targetPoint" />
          </mxGeometry>
        </mxCell>
        <mxCell id="zjI-ns-9y0Er0vaiKgGQ-74" value="departure" style="ellipse;whiteSpace=wrap;html=1;align=center;" vertex="1" parent="1">
          <mxGeometry x="80" y="580" width="100" height="40" as="geometry" />
        </mxCell>
        <mxCell id="zjI-ns-9y0Er0vaiKgGQ-75" value="arrival" style="ellipse;whiteSpace=wrap;html=1;align=center;" vertex="1" parent="1">
          <mxGeometry x="-60" y="580" width="100" height="40" as="geometry" />
        </mxCell>
        <mxCell id="zjI-ns-9y0Er0vaiKgGQ-79" value="diff" style="ellipse;whiteSpace=wrap;html=1;align=center;" vertex="1" parent="1">
          <mxGeometry x="10" y="650" width="100" height="40" as="geometry" />
        </mxCell>
        <mxCell id="zjI-ns-9y0Er0vaiKgGQ-86" style="rounded=0;orthogonalLoop=1;jettySize=auto;html=1;exitX=0.25;exitY=0;exitDx=0;exitDy=0;entryX=0.5;entryY=1;entryDx=0;entryDy=0;" edge="1" parent="1" source="zjI-ns-9y0Er0vaiKgGQ-84" target="zjI-ns-9y0Er0vaiKgGQ-85">
          <mxGeometry relative="1" as="geometry" />
        </mxCell>
        <mxCell id="zjI-ns-9y0Er0vaiKgGQ-88" style="rounded=0;orthogonalLoop=1;jettySize=auto;html=1;exitX=0;exitY=0.25;exitDx=0;exitDy=0;entryX=1;entryY=1;entryDx=0;entryDy=0;" edge="1" parent="1" source="zjI-ns-9y0Er0vaiKgGQ-84" target="zjI-ns-9y0Er0vaiKgGQ-87">
          <mxGeometry relative="1" as="geometry" />
        </mxCell>
        <mxCell id="zjI-ns-9y0Er0vaiKgGQ-84" value="orders" style="whiteSpace=wrap;html=1;align=center;" vertex="1" parent="1">
          <mxGeometry x="-220" y="450" width="100" height="40" as="geometry" />
        </mxCell>
        <mxCell id="zjI-ns-9y0Er0vaiKgGQ-85" value="id" style="ellipse;whiteSpace=wrap;html=1;align=center;fontStyle=4;" vertex="1" parent="1">
          <mxGeometry x="-270" y="360" width="100" height="40" as="geometry" />
        </mxCell>
        <mxCell id="zjI-ns-9y0Er0vaiKgGQ-87" value="cost" style="ellipse;whiteSpace=wrap;html=1;align=center;" vertex="1" parent="1">
          <mxGeometry x="-370" y="410" width="100" height="40" as="geometry" />
        </mxCell>
        <mxCell id="zjI-ns-9y0Er0vaiKgGQ-90" style="rounded=0;orthogonalLoop=1;jettySize=auto;html=1;exitX=1;exitY=0;exitDx=0;exitDy=0;entryX=0.5;entryY=1;entryDx=0;entryDy=0;" edge="1" parent="1" source="zjI-ns-9y0Er0vaiKgGQ-89" target="zjI-ns-9y0Er0vaiKgGQ-1">
          <mxGeometry relative="1" as="geometry" />
        </mxCell>
        <mxCell id="zjI-ns-9y0Er0vaiKgGQ-89" value="package_id" style="shape=rhombus;perimeter=rhombusPerimeter;whiteSpace=wrap;html=1;align=center;" vertex="1" parent="1">
          <mxGeometry x="-30" y="400" width="120" height="60" as="geometry" />
        </mxCell>
        <mxCell id="zjI-ns-9y0Er0vaiKgGQ-91" value="" style="fontSize=12;html=1;endArrow=ERmandOne;startArrow=ERmandOne;rounded=0;exitX=1;exitY=0.5;exitDx=0;exitDy=0;entryX=0;entryY=1;entryDx=0;entryDy=0;" edge="1" parent="1" source="zjI-ns-9y0Er0vaiKgGQ-84" target="zjI-ns-9y0Er0vaiKgGQ-89">
          <mxGeometry width="100" height="100" relative="1" as="geometry">
            <mxPoint x="80" y="480" as="sourcePoint" />
            <mxPoint x="180" y="380" as="targetPoint" />
          </mxGeometry>
        </mxCell>
        <mxCell id="zjI-ns-9y0Er0vaiKgGQ-93" style="rounded=0;orthogonalLoop=1;jettySize=auto;html=1;exitX=1;exitY=0;exitDx=0;exitDy=0;entryX=0.5;entryY=1;entryDx=0;entryDy=0;" edge="1" parent="1" source="zjI-ns-9y0Er0vaiKgGQ-92" target="zjI-ns-9y0Er0vaiKgGQ-84">
          <mxGeometry relative="1" as="geometry" />
        </mxCell>
        <mxCell id="zjI-ns-9y0Er0vaiKgGQ-92" value="order_id" style="shape=rhombus;perimeter=rhombusPerimeter;whiteSpace=wrap;html=1;align=center;" vertex="1" parent="1">
          <mxGeometry x="-270" y="560" width="120" height="60" as="geometry" />
        </mxCell>
        <mxCell id="zjI-ns-9y0Er0vaiKgGQ-109" style="edgeStyle=orthogonalEdgeStyle;rounded=0;orthogonalLoop=1;jettySize=auto;html=1;exitX=0.5;exitY=1;exitDx=0;exitDy=0;entryX=0.5;entryY=0;entryDx=0;entryDy=0;" edge="1" parent="1" source="zjI-ns-9y0Er0vaiKgGQ-94" target="zjI-ns-9y0Er0vaiKgGQ-108">
          <mxGeometry relative="1" as="geometry" />
        </mxCell>
        <mxCell id="zjI-ns-9y0Er0vaiKgGQ-116" style="rounded=0;orthogonalLoop=1;jettySize=auto;html=1;exitX=1;exitY=0.75;exitDx=0;exitDy=0;entryX=0;entryY=0;entryDx=0;entryDy=0;" edge="1" parent="1" source="zjI-ns-9y0Er0vaiKgGQ-94" target="zjI-ns-9y0Er0vaiKgGQ-115">
          <mxGeometry relative="1" as="geometry" />
        </mxCell>
        <mxCell id="zjI-ns-9y0Er0vaiKgGQ-117" style="rounded=0;orthogonalLoop=1;jettySize=auto;html=1;exitX=0;exitY=0.75;exitDx=0;exitDy=0;entryX=1;entryY=0;entryDx=0;entryDy=0;" edge="1" parent="1" source="zjI-ns-9y0Er0vaiKgGQ-94" target="zjI-ns-9y0Er0vaiKgGQ-114">
          <mxGeometry relative="1" as="geometry" />
        </mxCell>
        <mxCell id="zjI-ns-9y0Er0vaiKgGQ-94" value="transactions" style="whiteSpace=wrap;html=1;align=center;" vertex="1" parent="1">
          <mxGeometry x="-310" y="700" width="100" height="40" as="geometry" />
        </mxCell>
        <mxCell id="zjI-ns-9y0Er0vaiKgGQ-95" value="" style="fontSize=12;html=1;endArrow=ERzeroToMany;endFill=1;rounded=0;exitX=0;exitY=1;exitDx=0;exitDy=0;entryX=0.5;entryY=0;entryDx=0;entryDy=0;" edge="1" parent="1" source="zjI-ns-9y0Er0vaiKgGQ-92" target="zjI-ns-9y0Er0vaiKgGQ-94">
          <mxGeometry width="100" height="100" relative="1" as="geometry">
            <mxPoint x="80" y="480" as="sourcePoint" />
            <mxPoint x="180" y="380" as="targetPoint" />
          </mxGeometry>
        </mxCell>
        <mxCell id="zjI-ns-9y0Er0vaiKgGQ-110" style="rounded=0;orthogonalLoop=1;jettySize=auto;html=1;exitX=0;exitY=0.25;exitDx=0;exitDy=0;entryX=1;entryY=0.5;entryDx=0;entryDy=0;" edge="1" parent="1" source="zjI-ns-9y0Er0vaiKgGQ-96" target="zjI-ns-9y0Er0vaiKgGQ-107">
          <mxGeometry relative="1" as="geometry" />
        </mxCell>
        <mxCell id="zjI-ns-9y0Er0vaiKgGQ-111" style="edgeStyle=orthogonalEdgeStyle;rounded=0;orthogonalLoop=1;jettySize=auto;html=1;exitX=0.5;exitY=0;exitDx=0;exitDy=0;entryX=0.5;entryY=1;entryDx=0;entryDy=0;" edge="1" parent="1" source="zjI-ns-9y0Er0vaiKgGQ-96" target="zjI-ns-9y0Er0vaiKgGQ-106">
          <mxGeometry relative="1" as="geometry" />
        </mxCell>
        <mxCell id="zjI-ns-9y0Er0vaiKgGQ-113" style="rounded=0;orthogonalLoop=1;jettySize=auto;html=1;exitX=0.25;exitY=0;exitDx=0;exitDy=0;entryX=1;entryY=1;entryDx=0;entryDy=0;" edge="1" parent="1" source="zjI-ns-9y0Er0vaiKgGQ-96" target="zjI-ns-9y0Er0vaiKgGQ-112">
          <mxGeometry relative="1" as="geometry" />
        </mxCell>
        <mxCell id="zjI-ns-9y0Er0vaiKgGQ-119" style="rounded=0;orthogonalLoop=1;jettySize=auto;html=1;exitX=0;exitY=0.75;exitDx=0;exitDy=0;entryX=1;entryY=0.5;entryDx=0;entryDy=0;" edge="1" parent="1" source="zjI-ns-9y0Er0vaiKgGQ-96" target="zjI-ns-9y0Er0vaiKgGQ-118">
          <mxGeometry relative="1" as="geometry" />
        </mxCell>
        <mxCell id="zjI-ns-9y0Er0vaiKgGQ-96" value="customers" style="whiteSpace=wrap;html=1;align=center;" vertex="1" parent="1">
          <mxGeometry x="-570" y="540" width="100" height="40" as="geometry" />
        </mxCell>
        <mxCell id="zjI-ns-9y0Er0vaiKgGQ-98" style="rounded=0;orthogonalLoop=1;jettySize=auto;html=1;exitX=0;exitY=1;exitDx=0;exitDy=0;entryX=1;entryY=0.25;entryDx=0;entryDy=0;" edge="1" parent="1" source="zjI-ns-9y0Er0vaiKgGQ-97" target="zjI-ns-9y0Er0vaiKgGQ-96">
          <mxGeometry relative="1" as="geometry" />
        </mxCell>
        <mxCell id="zjI-ns-9y0Er0vaiKgGQ-97" value="customer_id" style="shape=rhombus;perimeter=rhombusPerimeter;whiteSpace=wrap;html=1;align=center;" vertex="1" parent="1">
          <mxGeometry x="-410" y="490" width="120" height="60" as="geometry" />
        </mxCell>
        <mxCell id="zjI-ns-9y0Er0vaiKgGQ-103" style="rounded=0;orthogonalLoop=1;jettySize=auto;html=1;exitX=0;exitY=0;exitDx=0;exitDy=0;entryX=1;entryY=0.75;entryDx=0;entryDy=0;" edge="1" parent="1" source="zjI-ns-9y0Er0vaiKgGQ-99" target="zjI-ns-9y0Er0vaiKgGQ-96">
          <mxGeometry relative="1" as="geometry" />
        </mxCell>
        <mxCell id="zjI-ns-9y0Er0vaiKgGQ-99" value="customer_id" style="shape=rhombus;perimeter=rhombusPerimeter;whiteSpace=wrap;html=1;align=center;" vertex="1" parent="1">
          <mxGeometry x="-430" y="590" width="120" height="60" as="geometry" />
        </mxCell>
        <mxCell id="zjI-ns-9y0Er0vaiKgGQ-104" value="" style="fontSize=12;html=1;endArrow=ERmandOne;rounded=0;entryX=0.25;entryY=0;entryDx=0;entryDy=0;exitX=1;exitY=1;exitDx=0;exitDy=0;" edge="1" parent="1" source="zjI-ns-9y0Er0vaiKgGQ-99" target="zjI-ns-9y0Er0vaiKgGQ-94">
          <mxGeometry width="100" height="100" relative="1" as="geometry">
            <mxPoint x="80" y="480" as="sourcePoint" />
            <mxPoint x="180" y="380" as="targetPoint" />
          </mxGeometry>
        </mxCell>
        <mxCell id="zjI-ns-9y0Er0vaiKgGQ-105" value="" style="edgeStyle=entityRelationEdgeStyle;fontSize=12;html=1;endArrow=ERmandOne;rounded=0;entryX=0;entryY=0.75;entryDx=0;entryDy=0;exitX=1;exitY=0;exitDx=0;exitDy=0;" edge="1" parent="1" source="zjI-ns-9y0Er0vaiKgGQ-97" target="zjI-ns-9y0Er0vaiKgGQ-84">
          <mxGeometry width="100" height="100" relative="1" as="geometry">
            <mxPoint x="80" y="480" as="sourcePoint" />
            <mxPoint x="180" y="380" as="targetPoint" />
          </mxGeometry>
        </mxCell>
        <mxCell id="zjI-ns-9y0Er0vaiKgGQ-106" value="amt_due" style="ellipse;whiteSpace=wrap;html=1;align=center;" vertex="1" parent="1">
          <mxGeometry x="-570" y="450" width="100" height="40" as="geometry" />
        </mxCell>
        <mxCell id="zjI-ns-9y0Er0vaiKgGQ-107" value="id" style="ellipse;whiteSpace=wrap;html=1;align=center;fontStyle=4;" vertex="1" parent="1">
          <mxGeometry x="-800" y="500" width="100" height="40" as="geometry" />
        </mxCell>
        <mxCell id="zjI-ns-9y0Er0vaiKgGQ-108" value="id" style="ellipse;whiteSpace=wrap;html=1;align=center;fontStyle=4;" vertex="1" parent="1">
          <mxGeometry x="-310" y="780" width="100" height="40" as="geometry" />
        </mxCell>
        <mxCell id="zjI-ns-9y0Er0vaiKgGQ-112" value="bill_address" style="ellipse;whiteSpace=wrap;html=1;align=center;" vertex="1" parent="1">
          <mxGeometry x="-700" y="450" width="100" height="40" as="geometry" />
        </mxCell>
        <mxCell id="zjI-ns-9y0Er0vaiKgGQ-114" value="amount" style="ellipse;whiteSpace=wrap;html=1;align=center;" vertex="1" parent="1">
          <mxGeometry x="-470" y="750" width="100" height="40" as="geometry" />
        </mxCell>
        <mxCell id="zjI-ns-9y0Er0vaiKgGQ-115" value="pmt_method" style="ellipse;whiteSpace=wrap;html=1;align=center;" vertex="1" parent="1">
          <mxGeometry x="-170" y="740" width="100" height="40" as="geometry" />
        </mxCell>
        <mxCell id="zjI-ns-9y0Er0vaiKgGQ-118" value="email" style="ellipse;whiteSpace=wrap;html=1;align=center;" vertex="1" parent="1">
          <mxGeometry x="-800" y="580" width="100" height="40" as="geometry" />
        </mxCell>
      </root>
    </mxGraphModel>
  </diagram>
</mxfile>
